<mxfile host="Electron" modified="2025-04-22T10:18:04.525Z" agent="Mozilla/5.0 (Windows NT 10.0; Win64; x64) AppleWebKit/537.36 (KHTML, like Gecko) draw.io/24.0.4 Chrome/120.0.6099.109 Electron/28.1.0 Safari/537.36" etag="cFZdPiXQyXehDXMgzUPn" version="24.0.4" type="device">
  <diagram name="Page-1" id="YhwRfQKds0cWnf8ZrLQG">
    <mxGraphModel dx="569" dy="775" grid="1" gridSize="10" guides="1" tooltips="1" connect="1" arrows="1" fold="1" page="1" pageScale="1" pageWidth="850" pageHeight="1100" math="0" shadow="0">
      <root>
        <mxCell id="0" />
        <mxCell id="1" parent="0" />
        <mxCell id="QBloN1chTKcvrlWgBtiP-12" value="&lt;b style=&quot;font-size: 14px;&quot;&gt;&lt;font style=&quot;font-size: 14px;&quot;&gt;Card&lt;/font&gt;&lt;/b&gt;" style="rounded=0;whiteSpace=wrap;html=1;fillColor=#d5e8d4;strokeColor=#82b366;fontSize=14;" parent="1" vertex="1">
          <mxGeometry x="440" y="390" width="120" height="60" as="geometry" />
        </mxCell>
        <mxCell id="DiZi5yJ-_VaZs-A9eiOJ-28" style="edgeStyle=orthogonalEdgeStyle;rounded=0;orthogonalLoop=1;jettySize=auto;html=1;exitX=1;exitY=0.5;exitDx=0;exitDy=0;entryX=0;entryY=0.5;entryDx=0;entryDy=0;dashed=1;" edge="1" parent="1" source="QBloN1chTKcvrlWgBtiP-16" target="DiZi5yJ-_VaZs-A9eiOJ-10">
          <mxGeometry relative="1" as="geometry" />
        </mxCell>
        <mxCell id="DiZi5yJ-_VaZs-A9eiOJ-33" value="1" style="edgeLabel;html=1;align=center;verticalAlign=middle;resizable=0;points=[];" vertex="1" connectable="0" parent="DiZi5yJ-_VaZs-A9eiOJ-28">
          <mxGeometry x="-0.7694" y="-1" relative="1" as="geometry">
            <mxPoint y="-9" as="offset" />
          </mxGeometry>
        </mxCell>
        <mxCell id="DiZi5yJ-_VaZs-A9eiOJ-34" value="1" style="edgeLabel;html=1;align=center;verticalAlign=middle;resizable=0;points=[];" vertex="1" connectable="0" parent="DiZi5yJ-_VaZs-A9eiOJ-28">
          <mxGeometry x="0.6472" y="3" relative="1" as="geometry">
            <mxPoint y="-5" as="offset" />
          </mxGeometry>
        </mxCell>
        <mxCell id="DiZi5yJ-_VaZs-A9eiOJ-29" style="edgeStyle=orthogonalEdgeStyle;rounded=0;orthogonalLoop=1;jettySize=auto;html=1;exitX=0;exitY=0.5;exitDx=0;exitDy=0;entryX=1;entryY=0.5;entryDx=0;entryDy=0;dashed=1;" edge="1" parent="1" source="QBloN1chTKcvrlWgBtiP-16" target="QBloN1chTKcvrlWgBtiP-17">
          <mxGeometry relative="1" as="geometry" />
        </mxCell>
        <mxCell id="DiZi5yJ-_VaZs-A9eiOJ-30" value="1" style="edgeLabel;html=1;align=center;verticalAlign=middle;resizable=0;points=[];" vertex="1" connectable="0" parent="DiZi5yJ-_VaZs-A9eiOJ-29">
          <mxGeometry x="0.4429" y="-4" relative="1" as="geometry">
            <mxPoint x="-9" y="-3" as="offset" />
          </mxGeometry>
        </mxCell>
        <mxCell id="DiZi5yJ-_VaZs-A9eiOJ-31" value="1" style="edgeLabel;html=1;align=center;verticalAlign=middle;resizable=0;points=[];" vertex="1" connectable="0" parent="DiZi5yJ-_VaZs-A9eiOJ-29">
          <mxGeometry x="-0.3764" relative="1" as="geometry">
            <mxPoint x="15" y="-7" as="offset" />
          </mxGeometry>
        </mxCell>
        <mxCell id="QBloN1chTKcvrlWgBtiP-16" value="&lt;b&gt;&lt;font style=&quot;font-size: 14px;&quot;&gt;HearthStone&lt;/font&gt;&lt;/b&gt;" style="rounded=0;whiteSpace=wrap;html=1;fillColor=#dae8fc;strokeColor=#6c8ebf;" parent="1" vertex="1">
          <mxGeometry x="640" y="170" width="120" height="60" as="geometry" />
        </mxCell>
        <mxCell id="QBloN1chTKcvrlWgBtiP-17" value="&lt;b&gt;&lt;font style=&quot;font-size: 14px;&quot;&gt;HearthView&lt;/font&gt;&lt;/b&gt;" style="rounded=0;whiteSpace=wrap;html=1;fillColor=#ffe6cc;strokeColor=#d79b00;" parent="1" vertex="1">
          <mxGeometry x="440" y="170" width="120" height="60" as="geometry" />
        </mxCell>
        <mxCell id="DiZi5yJ-_VaZs-A9eiOJ-11" style="edgeStyle=orthogonalEdgeStyle;rounded=0;orthogonalLoop=1;jettySize=auto;html=1;exitX=0.5;exitY=0;exitDx=0;exitDy=0;entryX=0.5;entryY=1;entryDx=0;entryDy=0;" edge="1" parent="1" source="DiZi5yJ-_VaZs-A9eiOJ-1" target="QBloN1chTKcvrlWgBtiP-12">
          <mxGeometry relative="1" as="geometry">
            <Array as="points">
              <mxPoint x="360" y="470" />
              <mxPoint x="500" y="470" />
            </Array>
          </mxGeometry>
        </mxCell>
        <mxCell id="DiZi5yJ-_VaZs-A9eiOJ-1" value="&lt;b&gt;&lt;font style=&quot;font-size: 14px;&quot;&gt;Shield&lt;/font&gt;&lt;/b&gt;" style="rounded=0;whiteSpace=wrap;html=1;fillColor=#dae8fc;strokeColor=#6c8ebf;" vertex="1" parent="1">
          <mxGeometry x="300" y="480" width="120" height="60" as="geometry" />
        </mxCell>
        <mxCell id="DiZi5yJ-_VaZs-A9eiOJ-14" style="edgeStyle=orthogonalEdgeStyle;rounded=0;orthogonalLoop=1;jettySize=auto;html=1;exitX=0.5;exitY=0;exitDx=0;exitDy=0;entryX=0.5;entryY=1;entryDx=0;entryDy=0;" edge="1" parent="1" source="DiZi5yJ-_VaZs-A9eiOJ-2" target="QBloN1chTKcvrlWgBtiP-12">
          <mxGeometry relative="1" as="geometry">
            <Array as="points">
              <mxPoint x="640" y="470" />
              <mxPoint x="500" y="470" />
            </Array>
          </mxGeometry>
        </mxCell>
        <mxCell id="DiZi5yJ-_VaZs-A9eiOJ-2" value="&lt;b&gt;&lt;font style=&quot;font-size: 14px;&quot;&gt;Heal&lt;/font&gt;&lt;/b&gt;" style="rounded=0;whiteSpace=wrap;html=1;fillColor=#dae8fc;strokeColor=#6c8ebf;" vertex="1" parent="1">
          <mxGeometry x="580" y="480" width="120" height="60" as="geometry" />
        </mxCell>
        <mxCell id="DiZi5yJ-_VaZs-A9eiOJ-13" style="edgeStyle=orthogonalEdgeStyle;rounded=0;orthogonalLoop=1;jettySize=auto;html=1;exitX=0.5;exitY=0;exitDx=0;exitDy=0;entryX=0.5;entryY=1;entryDx=0;entryDy=0;" edge="1" parent="1" source="DiZi5yJ-_VaZs-A9eiOJ-3" target="QBloN1chTKcvrlWgBtiP-12">
          <mxGeometry relative="1" as="geometry" />
        </mxCell>
        <mxCell id="DiZi5yJ-_VaZs-A9eiOJ-3" value="&lt;b&gt;&lt;font style=&quot;font-size: 14px;&quot;&gt;Fireball&lt;/font&gt;&lt;/b&gt;" style="rounded=0;whiteSpace=wrap;html=1;fillColor=#dae8fc;strokeColor=#6c8ebf;" vertex="1" parent="1">
          <mxGeometry x="440" y="480" width="120" height="60" as="geometry" />
        </mxCell>
        <mxCell id="DiZi5yJ-_VaZs-A9eiOJ-24" style="edgeStyle=orthogonalEdgeStyle;rounded=0;orthogonalLoop=1;jettySize=auto;html=1;exitX=0.5;exitY=1;exitDx=0;exitDy=0;entryX=0.5;entryY=0;entryDx=0;entryDy=0;dashed=1;" edge="1" parent="1" source="DiZi5yJ-_VaZs-A9eiOJ-4" target="QBloN1chTKcvrlWgBtiP-12">
          <mxGeometry relative="1" as="geometry" />
        </mxCell>
        <mxCell id="DiZi5yJ-_VaZs-A9eiOJ-41" value="1" style="edgeLabel;html=1;align=center;verticalAlign=middle;resizable=0;points=[];" vertex="1" connectable="0" parent="DiZi5yJ-_VaZs-A9eiOJ-24">
          <mxGeometry x="-0.3222" y="-1" relative="1" as="geometry">
            <mxPoint x="-7" y="-9" as="offset" />
          </mxGeometry>
        </mxCell>
        <mxCell id="DiZi5yJ-_VaZs-A9eiOJ-42" value="N" style="edgeLabel;html=1;align=center;verticalAlign=middle;resizable=0;points=[];" vertex="1" connectable="0" parent="DiZi5yJ-_VaZs-A9eiOJ-24">
          <mxGeometry x="0.4444" y="2" relative="1" as="geometry">
            <mxPoint x="-10" y="-3" as="offset" />
          </mxGeometry>
        </mxCell>
        <mxCell id="DiZi5yJ-_VaZs-A9eiOJ-4" value="&lt;b&gt;&lt;font style=&quot;font-size: 14px;&quot;&gt;CardDeck&lt;/font&gt;&lt;/b&gt;" style="rounded=0;whiteSpace=wrap;html=1;fillColor=#dae8fc;strokeColor=#6c8ebf;" vertex="1" parent="1">
          <mxGeometry x="440" y="280" width="120" height="60" as="geometry" />
        </mxCell>
        <mxCell id="DiZi5yJ-_VaZs-A9eiOJ-5" value="&lt;b style=&quot;font-size: 14px;&quot;&gt;&lt;font style=&quot;font-size: 14px;&quot;&gt;Entity&lt;/font&gt;&lt;/b&gt;" style="rounded=0;whiteSpace=wrap;html=1;fillColor=#d5e8d4;strokeColor=#82b366;fontSize=14;" vertex="1" parent="1">
          <mxGeometry x="840" y="280" width="120" height="60" as="geometry" />
        </mxCell>
        <mxCell id="DiZi5yJ-_VaZs-A9eiOJ-21" style="edgeStyle=orthogonalEdgeStyle;rounded=0;orthogonalLoop=1;jettySize=auto;html=1;exitX=1;exitY=0.5;exitDx=0;exitDy=0;entryX=0;entryY=0.5;entryDx=0;entryDy=0;" edge="1" parent="1" source="DiZi5yJ-_VaZs-A9eiOJ-6" target="DiZi5yJ-_VaZs-A9eiOJ-5">
          <mxGeometry relative="1" as="geometry" />
        </mxCell>
        <mxCell id="DiZi5yJ-_VaZs-A9eiOJ-22" style="edgeStyle=orthogonalEdgeStyle;rounded=0;orthogonalLoop=1;jettySize=auto;html=1;exitX=0.5;exitY=1;exitDx=0;exitDy=0;entryX=1;entryY=0.25;entryDx=0;entryDy=0;dashed=1;" edge="1" parent="1" source="DiZi5yJ-_VaZs-A9eiOJ-6" target="QBloN1chTKcvrlWgBtiP-12">
          <mxGeometry relative="1" as="geometry" />
        </mxCell>
        <mxCell id="DiZi5yJ-_VaZs-A9eiOJ-43" value="1" style="edgeLabel;html=1;align=center;verticalAlign=middle;resizable=0;points=[];" vertex="1" connectable="0" parent="DiZi5yJ-_VaZs-A9eiOJ-22">
          <mxGeometry x="-0.8916" y="-2" relative="1" as="geometry">
            <mxPoint x="-5" y="-1" as="offset" />
          </mxGeometry>
        </mxCell>
        <mxCell id="DiZi5yJ-_VaZs-A9eiOJ-44" value="N" style="edgeLabel;html=1;align=center;verticalAlign=middle;resizable=0;points=[];" vertex="1" connectable="0" parent="DiZi5yJ-_VaZs-A9eiOJ-22">
          <mxGeometry x="0.8287" y="1" relative="1" as="geometry">
            <mxPoint y="-10" as="offset" />
          </mxGeometry>
        </mxCell>
        <mxCell id="DiZi5yJ-_VaZs-A9eiOJ-23" style="edgeStyle=orthogonalEdgeStyle;rounded=0;orthogonalLoop=1;jettySize=auto;html=1;exitX=0;exitY=0.5;exitDx=0;exitDy=0;entryX=1;entryY=0.5;entryDx=0;entryDy=0;dashed=1;" edge="1" parent="1" source="DiZi5yJ-_VaZs-A9eiOJ-6" target="DiZi5yJ-_VaZs-A9eiOJ-4">
          <mxGeometry relative="1" as="geometry" />
        </mxCell>
        <mxCell id="DiZi5yJ-_VaZs-A9eiOJ-39" value="1" style="edgeLabel;html=1;align=center;verticalAlign=middle;resizable=0;points=[];" vertex="1" connectable="0" parent="DiZi5yJ-_VaZs-A9eiOJ-23">
          <mxGeometry x="-0.7444" y="-1" relative="1" as="geometry">
            <mxPoint y="-7" as="offset" />
          </mxGeometry>
        </mxCell>
        <mxCell id="DiZi5yJ-_VaZs-A9eiOJ-40" value="1" style="edgeLabel;html=1;align=center;verticalAlign=middle;resizable=0;points=[];" vertex="1" connectable="0" parent="DiZi5yJ-_VaZs-A9eiOJ-23">
          <mxGeometry x="0.6306" y="-1" relative="1" as="geometry">
            <mxPoint x="1" y="-7" as="offset" />
          </mxGeometry>
        </mxCell>
        <mxCell id="DiZi5yJ-_VaZs-A9eiOJ-6" value="&lt;b&gt;&lt;font style=&quot;font-size: 14px;&quot;&gt;Hero&lt;/font&gt;&lt;/b&gt;" style="rounded=0;whiteSpace=wrap;html=1;fillColor=#dae8fc;strokeColor=#6c8ebf;" vertex="1" parent="1">
          <mxGeometry x="640" y="280" width="120" height="60" as="geometry" />
        </mxCell>
        <mxCell id="DiZi5yJ-_VaZs-A9eiOJ-17" style="edgeStyle=orthogonalEdgeStyle;rounded=0;orthogonalLoop=1;jettySize=auto;html=1;exitX=0.5;exitY=0;exitDx=0;exitDy=0;entryX=0.5;entryY=1;entryDx=0;entryDy=0;" edge="1" parent="1" source="DiZi5yJ-_VaZs-A9eiOJ-7" target="DiZi5yJ-_VaZs-A9eiOJ-5">
          <mxGeometry relative="1" as="geometry" />
        </mxCell>
        <mxCell id="DiZi5yJ-_VaZs-A9eiOJ-19" style="edgeStyle=orthogonalEdgeStyle;rounded=0;orthogonalLoop=1;jettySize=auto;html=1;exitX=0;exitY=0.5;exitDx=0;exitDy=0;entryX=1;entryY=0.75;entryDx=0;entryDy=0;" edge="1" parent="1" source="DiZi5yJ-_VaZs-A9eiOJ-7" target="QBloN1chTKcvrlWgBtiP-12">
          <mxGeometry relative="1" as="geometry">
            <Array as="points">
              <mxPoint x="720" y="420" />
              <mxPoint x="720" y="435" />
            </Array>
          </mxGeometry>
        </mxCell>
        <mxCell id="DiZi5yJ-_VaZs-A9eiOJ-7" value="&lt;b style=&quot;font-size: 14px;&quot;&gt;&lt;font style=&quot;font-size: 14px;&quot;&gt;Minion&lt;/font&gt;&lt;/b&gt;" style="rounded=0;whiteSpace=wrap;html=1;fillColor=#d5e8d4;strokeColor=#82b366;fontSize=14;" vertex="1" parent="1">
          <mxGeometry x="840" y="390" width="120" height="60" as="geometry" />
        </mxCell>
        <mxCell id="DiZi5yJ-_VaZs-A9eiOJ-16" style="edgeStyle=orthogonalEdgeStyle;rounded=0;orthogonalLoop=1;jettySize=auto;html=1;exitX=0.5;exitY=0;exitDx=0;exitDy=0;entryX=0.5;entryY=1;entryDx=0;entryDy=0;" edge="1" parent="1" source="DiZi5yJ-_VaZs-A9eiOJ-8" target="DiZi5yJ-_VaZs-A9eiOJ-7">
          <mxGeometry relative="1" as="geometry">
            <Array as="points">
              <mxPoint x="980" y="470" />
              <mxPoint x="900" y="470" />
            </Array>
          </mxGeometry>
        </mxCell>
        <mxCell id="DiZi5yJ-_VaZs-A9eiOJ-8" value="&lt;span style=&quot;font-size: 14px;&quot;&gt;&lt;b&gt;Raptor&lt;/b&gt;&lt;/span&gt;" style="rounded=0;whiteSpace=wrap;html=1;fillColor=#dae8fc;strokeColor=#6c8ebf;" vertex="1" parent="1">
          <mxGeometry x="920" y="480" width="120" height="60" as="geometry" />
        </mxCell>
        <mxCell id="DiZi5yJ-_VaZs-A9eiOJ-15" style="edgeStyle=orthogonalEdgeStyle;rounded=0;orthogonalLoop=1;jettySize=auto;html=1;exitX=0.5;exitY=0;exitDx=0;exitDy=0;entryX=0.5;entryY=1;entryDx=0;entryDy=0;" edge="1" parent="1" source="DiZi5yJ-_VaZs-A9eiOJ-9" target="DiZi5yJ-_VaZs-A9eiOJ-7">
          <mxGeometry relative="1" as="geometry">
            <Array as="points">
              <mxPoint x="820" y="470" />
              <mxPoint x="900" y="470" />
            </Array>
          </mxGeometry>
        </mxCell>
        <mxCell id="DiZi5yJ-_VaZs-A9eiOJ-9" value="&lt;span style=&quot;font-size: 14px;&quot;&gt;&lt;b&gt;Wyrm&lt;/b&gt;&lt;/span&gt;" style="rounded=0;whiteSpace=wrap;html=1;fillColor=#dae8fc;strokeColor=#6c8ebf;" vertex="1" parent="1">
          <mxGeometry x="760" y="480" width="120" height="60" as="geometry" />
        </mxCell>
        <mxCell id="DiZi5yJ-_VaZs-A9eiOJ-26" style="edgeStyle=orthogonalEdgeStyle;rounded=0;orthogonalLoop=1;jettySize=auto;html=1;exitX=0.5;exitY=1;exitDx=0;exitDy=0;entryX=0.5;entryY=0;entryDx=0;entryDy=0;dashed=1;" edge="1" parent="1" source="DiZi5yJ-_VaZs-A9eiOJ-10" target="DiZi5yJ-_VaZs-A9eiOJ-6">
          <mxGeometry relative="1" as="geometry" />
        </mxCell>
        <mxCell id="DiZi5yJ-_VaZs-A9eiOJ-37" value="1" style="edgeLabel;html=1;align=center;verticalAlign=middle;resizable=0;points=[];" vertex="1" connectable="0" parent="DiZi5yJ-_VaZs-A9eiOJ-26">
          <mxGeometry x="-0.9089" y="1" relative="1" as="geometry">
            <mxPoint x="-8" y="-4" as="offset" />
          </mxGeometry>
        </mxCell>
        <mxCell id="DiZi5yJ-_VaZs-A9eiOJ-38" value="N" style="edgeLabel;html=1;align=center;verticalAlign=middle;resizable=0;points=[];" vertex="1" connectable="0" parent="DiZi5yJ-_VaZs-A9eiOJ-26">
          <mxGeometry x="0.9244" relative="1" as="geometry">
            <mxPoint x="-9" y="-4" as="offset" />
          </mxGeometry>
        </mxCell>
        <mxCell id="DiZi5yJ-_VaZs-A9eiOJ-27" style="edgeStyle=orthogonalEdgeStyle;rounded=0;orthogonalLoop=1;jettySize=auto;html=1;exitX=1;exitY=0.5;exitDx=0;exitDy=0;entryX=1;entryY=0.5;entryDx=0;entryDy=0;dashed=1;" edge="1" parent="1" source="DiZi5yJ-_VaZs-A9eiOJ-10" target="DiZi5yJ-_VaZs-A9eiOJ-7">
          <mxGeometry relative="1" as="geometry">
            <Array as="points">
              <mxPoint x="1000" y="200" />
              <mxPoint x="1000" y="420" />
            </Array>
          </mxGeometry>
        </mxCell>
        <mxCell id="DiZi5yJ-_VaZs-A9eiOJ-35" value="1" style="edgeLabel;html=1;align=center;verticalAlign=middle;resizable=0;points=[];" vertex="1" connectable="0" parent="DiZi5yJ-_VaZs-A9eiOJ-27">
          <mxGeometry x="-0.8904" relative="1" as="geometry">
            <mxPoint x="-7" y="-8" as="offset" />
          </mxGeometry>
        </mxCell>
        <mxCell id="DiZi5yJ-_VaZs-A9eiOJ-36" value="N" style="edgeLabel;html=1;align=center;verticalAlign=middle;resizable=0;points=[];" vertex="1" connectable="0" parent="DiZi5yJ-_VaZs-A9eiOJ-27">
          <mxGeometry x="0.9404" y="1" relative="1" as="geometry">
            <mxPoint x="4" y="-9" as="offset" />
          </mxGeometry>
        </mxCell>
        <mxCell id="DiZi5yJ-_VaZs-A9eiOJ-10" value="&lt;b&gt;&lt;font style=&quot;font-size: 14px;&quot;&gt;HearthModel&lt;/font&gt;&lt;/b&gt;" style="rounded=0;whiteSpace=wrap;html=1;fillColor=#dae8fc;strokeColor=#6c8ebf;" vertex="1" parent="1">
          <mxGeometry x="840" y="170" width="120" height="60" as="geometry" />
        </mxCell>
      </root>
    </mxGraphModel>
  </diagram>
</mxfile>
